<svg class="routemap" viewBox="0 0 640 480" role="img" aria-label="Route map" xmlns:c2pa="http://c2pa.org/manifest"><metadata><c2pa:manifest>AAAWgmp1bWIAAAAeanVtZGMycGEAEQAQgAAAqgA4m3EDYzJwYQAAABZcanVtYgAAAEdqdW1kYzJtYQARABCAAACqADibcQN1cm46YzJwYToyYjMyMmYyNS1lY2Q5LTRkNTQtYjdjYS1hNDY0NWQ4NTFmMTgAAAADl2p1bWIAAAApanVtZGMyYXMAEQAQgAAAqgA4m3EDYzJwYS5hc3NlcnRpb25zAAAAALxqdW1iAAAARGp1bWRjYm9yABEAEIAAAKoAOJtxE2MycGEuaW5ncmVkaWVudC52MwAAAAAYYzJzaKHIxd9BXMCS7wrljbrB2hsAAABwY2JvcqNpZGM6Zm9ybWF0bWltYWdlL3N2Zyt4bWxqaW5zdGFuY2VJRHgseG1wOmlpZDo5ODhlNWE0NS1iZmRmLTQ3NDAtODY3My00NTk5ZWQwYzEwZmNscmVsYXRpb25zaGlwaHBhcmVudE9mAAAB4mp1bWIAAABBanVtZGNib3IAEQAQgAAAqgA4m3ETYzJwYS5hY3Rpb25zLnYyAAAAABhjMnNovMMyzNOqaPYCBoeZIS6CnAAAAZljYm9yomdhY3Rpb25zgqJmYWN0aW9ua2MycGEub3BlbmVkanBhcmFtZXRlcnOha2luZ3JlZGllbnRzgaJjdXJseC1zZWxmI2p1bWJmPWMycGEuYXNzZXJ0aW9ucy9jMnBhLmluZ3JlZGllbnQudjNkaGFzaFgg8NIaYOLH1x6jvx6IP52G4PTNvvXCyaca756Ehw/KKd+kZmFjdGlvbngdY29tLmFudGhyb3BpYy5jbGF1ZGUucHJvdmlkZWRqcGFyYW1ldGVyc6F4H2NvbS5hbnRocm9waWMub3JpZ2luLWNvbmZpZGVuY2VndW5rbm93bmtkZXNjcmlwdGlvbnhmQ2xhdWRlIHByb3ZpZGVkIHRoaXMgZmlsZSBhdCB0aGUgcmVxdWVzdCBvZiBhIHVzZXIgYW5kIG1heSBoYXZlIGNyZWF0ZWQgb3IgbW9kaWZpZWQgdGhlIGZpbGUgY29udGVudHMubXNvZnR3YXJlQWdlbnShZG5hbWVmQ2xhdWRlcmFsbEFjdGlvbnNJbmNsdWRlZPUAAADIanVtYgAAAEBqdW1kY2JvcgARABCAAACqADibcRNjMnBhLmhhc2guZGF0YQAAAAAYYzJzaH7Kyl0Mizw/3CqiNr+oaKQAAACAY2JvcqVjYWxnZnNoYTI1NmNwYWRNAAAAAAAAAAAAAAAAAGRoYXNoWCBATeAYbYrgq45TgrBZaO0u43k81CGAkwi3kFljxWAxs2RuYW1lbmp1bWJmIG1hbmlmZXN0amV4Y2x1c2lvbnOBomVzdGFydBiNZmxlbmd0aBkeBAAAAj5qdW1iAAAAJ2p1bWRjMmNsABEAEIAAAKoAOJtxA2MycGEuY2xhaW0udjIAAAACD2Nib3KlY2FsZ2ZzaGEyNTZpc2lnbmF0dXJleE1zZWxmI2p1bWJmPS9jMnBhL3VybjpjMnBhOjJiMzIyZjI1LWVjZDktNGQ1NC1iN2NhLWE0NjQ1ZDg1MWYxOC9jMnBhLnNpZ25hdHVyZWppbnN0YW5jZUlEeCx4bXA6aWlkOjM5OTY0OGFhLWMzNDgtNGI3YS05MGRkLWI4MWFiMmM5Zjc3N3JjcmVhdGVkX2Fzc2VydGlvbnODomN1cmx4LXNlbGYjanVtYmY9YzJwYS5hc3NlcnRpb25zL2MycGEuaW5ncmVkaWVudC52M2RoYXNoWCDw0hpg4sfXHqO/Hog/nYbg9M2+9cLJpxrvnoSHD8op36JjdXJseCpzZWxmI2p1bWJmPWMycGEuYXNzZXJ0aW9ucy9jMnBhLmFjdGlvbnMudjJkaGFzaFggWH2V44iF1Hz/nFJEqux16sBccb7cDg4pEsLTQnj/SQ+iY3VybHgpc2VsZiNqdW1iZj1jMnBhLmFzc2VydGlvbnMvYzJwYS5oYXNoLmRhdGFkaGFzaFggYRiTV1T4Ekgh2sD+3OREUdfGZjOTwSaiY5ysIWj9ch50Y2xhaW1fZ2VuZXJhdG9yX2luZm+jZG5hbWVvQW50aHJvcGljIEZpbGVzZ3ZlcnNpb25lMS4wLjBrc3BlY1ZlcnNpb25lMi40LjAAABA4anVtYgAAAChqdW1kYzJjcwARABCAAACqADibcQNjMnBhLnNpZ25hdHVyZQAAABAIY2JvctKEWQISogEmGCFZAgowggIGMIIBjaADAgECAhRA5aAK7sI50L64g/oGQgU9Z1UTADAKBggqhkjOPQQDAzBJMRcwFQYDVQQKEw5BbnRocm9waWMsIFBCQzEuMCwGA1UEAxMlQW50aHJvcGljIENvbnRlbnQgQ3JlZGVudGlhbHMgUm9vdCBDQTAeFw0yNjA4MDcxODQzNTZaFw0yODA4MDYxOTQzNTZaMEQxFzAVBgNVBAoTDkFudGhyb3BpYywgUEJDMSkwJwYDVQQDEyBBbnRocm9waWMgQ2xhdWRlIENvbnRlbnQgU2lnbmluZzBZMBMGByqGSM49AgEGCCqGSM49AwEHA0IABJh6CmvLUBgFFNU0vUKlOVtE6djd17L5SuwX0LemFisBM3dkd/3cyjxFA3Qo5S46fX0/ihY0VZ7mfb9KF703t5OjWDBWMA4GA1UdDwEB/wQEAwIHgDAVBgNVHSUEDjAMBgorBgEEAYPoXgIBMAwGA1UdEwEB/wQCMAAwHwYDVR0jBBgwFoAUzlHiBIFOZFsj+OPEz5o+nMHXXMIwCgYIKoZIzj0EAwMDZwAwZAIwMXMdFJ4BetLLVY7ORuE9noqbbAZOZn/aArXyTwFAZfKrPzxF2vPoJNf1+UCdg1XGAjBwX1zd9WGqYkqmL5SFqw1QySjr1zJfpJM9+1rdDwSPLMOPOjKuiXjoU/pUUeG9RwmhY3BhZFkNngAAAAAAAAAAAAAAAAAAAAAAAAAAAAAAAAAAAAAAAAAAAAAAAAAAAAAAAAAAAAAAAAAAAAAAAAAAAAAAAAAAAAAAAAAAAAAAAAAAAAAAAAAAAAAAAAAAAAAAAAAAAAAAAAAAAAAAAAAAAAAAAAAAAAAAAAAAAAAAAAAAAAAAAAAAAAAAAAAAAAAAAAAAAAAAAAAAAAAAAAAAAAAAAAAAAAAAAAAAAAAAAAAAAAAAAAAAAAAAAAAAAAAAAAAAAAAAAAAAAAAAAAAAAAAAAAAAAAAAAAAAAAAAAAAAAAAAAAAAAAAAAAAAAAAAAAAAAAAAAAAAAAAAAAAAAAAAAAAAAAAAAAAAAAAAAAAAAAAAAAAAAAAAAAAAAAAAAAAAAAAAAAAAAAAAAAAAAAAAAAAAAAAAAAAAAAAAAAAAAAAAAAAAAAAAAAAAAAAAAAAAAAAAAAAAAAAAAAAAAAAAAAAAAAAAAAAAAAAAAAAAAAAAAAAAAAAAAAAAAAAAAAAAAAAAAAAAAAAAAAAAAAAAAAAAAAAAAAAAAAAAAAAAAAAAAAAAAAAAAAAAAAAAAAAAAAAAAAAAAAAAAAAAAAAAAAAAAAAAAAAAAAAAAAAAAAAAAAAAAAAAAAAAAAAAAAAAAAAAAAAAAAAAAAAAAAAAAAAAAAAAAAAAAAAAAAAAAAAAAAAAAAAAAAAAAAAAAAAAAAAAAAAAAAAAAAAAAAAAAAAAAAAAAAAAAAAAAAAAAAAAAAAAAAAAAAAAAAAAAAAAAAAAAAAAAAAAAAAAAAAAAAAAAAAAAAAAAAAAAAAAAAAAAAAAAAAAAAAAAAAAAAAAAAAAAAAAAAAAAAAAAAAAAAAAAAAAAAAAAAAAAAAAAAAAAAAAAAAAAAAAAAAAAAAAAAAAAAAAAAAAAAAAAAAAAAAAAAAAAAAAAAAAAAAAAAAAAAAAAAAAAAAAAAAAAAAAAAAAAAAAAAAAAAAAAAAAAAAAAAAAAAAAAAAAAAAAAAAAAAAAAAAAAAAAAAAAAAAAAAAAAAAAAAAAAAAAAAAAAAAAAAAAAAAAAAAAAAAAAAAAAAAAAAAAAAAAAAAAAAAAAAAAAAAAAAAAAAAAAAAAAAAAAAAAAAAAAAAAAAAAAAAAAAAAAAAAAAAAAAAAAAAAAAAAAAAAAAAAAAAAAAAAAAAAAAAAAAAAAAAAAAAAAAAAAAAAAAAAAAAAAAAAAAAAAAAAAAAAAAAAAAAAAAAAAAAAAAAAAAAAAAAAAAAAAAAAAAAAAAAAAAAAAAAAAAAAAAAAAAAAAAAAAAAAAAAAAAAAAAAAAAAAAAAAAAAAAAAAAAAAAAAAAAAAAAAAAAAAAAAAAAAAAAAAAAAAAAAAAAAAAAAAAAAAAAAAAAAAAAAAAAAAAAAAAAAAAAAAAAAAAAAAAAAAAAAAAAAAAAAAAAAAAAAAAAAAAAAAAAAAAAAAAAAAAAAAAAAAAAAAAAAAAAAAAAAAAAAAAAAAAAAAAAAAAAAAAAAAAAAAAAAAAAAAAAAAAAAAAAAAAAAAAAAAAAAAAAAAAAAAAAAAAAAAAAAAAAAAAAAAAAAAAAAAAAAAAAAAAAAAAAAAAAAAAAAAAAAAAAAAAAAAAAAAAAAAAAAAAAAAAAAAAAAAAAAAAAAAAAAAAAAAAAAAAAAAAAAAAAAAAAAAAAAAAAAAAAAAAAAAAAAAAAAAAAAAAAAAAAAAAAAAAAAAAAAAAAAAAAAAAAAAAAAAAAAAAAAAAAAAAAAAAAAAAAAAAAAAAAAAAAAAAAAAAAAAAAAAAAAAAAAAAAAAAAAAAAAAAAAAAAAAAAAAAAAAAAAAAAAAAAAAAAAAAAAAAAAAAAAAAAAAAAAAAAAAAAAAAAAAAAAAAAAAAAAAAAAAAAAAAAAAAAAAAAAAAAAAAAAAAAAAAAAAAAAAAAAAAAAAAAAAAAAAAAAAAAAAAAAAAAAAAAAAAAAAAAAAAAAAAAAAAAAAAAAAAAAAAAAAAAAAAAAAAAAAAAAAAAAAAAAAAAAAAAAAAAAAAAAAAAAAAAAAAAAAAAAAAAAAAAAAAAAAAAAAAAAAAAAAAAAAAAAAAAAAAAAAAAAAAAAAAAAAAAAAAAAAAAAAAAAAAAAAAAAAAAAAAAAAAAAAAAAAAAAAAAAAAAAAAAAAAAAAAAAAAAAAAAAAAAAAAAAAAAAAAAAAAAAAAAAAAAAAAAAAAAAAAAAAAAAAAAAAAAAAAAAAAAAAAAAAAAAAAAAAAAAAAAAAAAAAAAAAAAAAAAAAAAAAAAAAAAAAAAAAAAAAAAAAAAAAAAAAAAAAAAAAAAAAAAAAAAAAAAAAAAAAAAAAAAAAAAAAAAAAAAAAAAAAAAAAAAAAAAAAAAAAAAAAAAAAAAAAAAAAAAAAAAAAAAAAAAAAAAAAAAAAAAAAAAAAAAAAAAAAAAAAAAAAAAAAAAAAAAAAAAAAAAAAAAAAAAAAAAAAAAAAAAAAAAAAAAAAAAAAAAAAAAAAAAAAAAAAAAAAAAAAAAAAAAAAAAAAAAAAAAAAAAAAAAAAAAAAAAAAAAAAAAAAAAAAAAAAAAAAAAAAAAAAAAAAAAAAAAAAAAAAAAAAAAAAAAAAAAAAAAAAAAAAAAAAAAAAAAAAAAAAAAAAAAAAAAAAAAAAAAAAAAAAAAAAAAAAAAAAAAAAAAAAAAAAAAAAAAAAAAAAAAAAAAAAAAAAAAAAAAAAAAAAAAAAAAAAAAAAAAAAAAAAAAAAAAAAAAAAAAAAAAAAAAAAAAAAAAAAAAAAAAAAAAAAAAAAAAAAAAAAAAAAAAAAAAAAAAAAAAAAAAAAAAAAAAAAAAAAAAAAAAAAAAAAAAAAAAAAAAAAAAAAAAAAAAAAAAAAAAAAAAAAAAAAAAAAAAAAAAAAAAAAAAAAAAAAAAAAAAAAAAAAAAAAAAAAAAAAAAAAAAAAAAAAAAAAAAAAAAAAAAAAAAAAAAAAAAAAAAAAAAAAAAAAAAAAAAAAAAAAAAAAAAAAAAAAAAAAAAAAAAAAAAAAAAAAAAAAAAAAAAAAAAAAAAAAAAAAAAAAAAAAAAAAAAAAAAAAAAAAAAAAAAAAAAAAAAAAAAAAAAAAAAAAAAAAAAAAAAAAAAAAAAAAAAAAAAAAAAAAAAAAAAAAAAAAAAAAAAAAAAAAAAAAAAAAAAAAAAAAAAAAAAAAAAAAAAAAAAAAAAAAAAAAAAAAAAAAAAAAAAAAAAAAAAAAAAAAAAAAAAAAAAAAAAAAAAAAAAAAAAAAAAAAAAAAAAAAAAAAAAAAAAAAAAAAAAAAAAAAAAAAAAAAAAAAAAAAAAAAAAAAAAAAAAAAAAAAAAAAAAAAAAAAAAAAAAAAAAAAAAAAAAAAAAAAAAAAAAAAAAAAAAAAAAAAAAAAAAAAAAAAAAAAAAAAAAAAAAAAAAAAAAAAAAAAAAAAAAAAAAAAAAAAAAAAAAAAAAAAAAAAAAAAAAAAAAAAAAAAAAAAAAAAAAAAAAAAAAAAAAAAAAAAAAAAAAAAAAAAAAAAAAAAAAAAAAAAAAAAAAAAAAAAAAAAAAAAAAAAAAAAAAAAAAAAAAAAAAAAAAAAAAAAAAAAAAAAAAAAAAAAAAAAAAAAAAAAAAAAAAAAAAAAAAAAAAAAAAAAAAAAAAAAAAAAAAAAAAAAAAAAAAAAAAAAAAAAAAAAAAAAAAAAAAAAAAAAAAAAAAAAAAAAAAAAAAAAAAAAAAAAAAAAAAAAAAAAAAAAAAAAAAAAAAAAAAAAAAAAAAAAAAAAAAAAAAAAAAAAAAAAAAAAAAAAAAAAAAAAAAAAAAAAAAAAAAAAAAAAAAAAAAAAAAAAAAAAAAAAAAAAAAAAAAAAAAAAAAAAAAAAAAAAAAAAAAAAAAAAAAAAAAAAAAAAAAAAAAAAAAAAAAAAAAAAAAAAAAAAAAAAAAAAAAAAAAAAAAAAAAAAAAAAAAAAAAAAAAAAAAAAAAAAAAAAAAAAAAAAAAAAAAAAAAAAAAAAAAAAAAAAAAAAAAAAAAAAAAAAAAAAAAAAAAAAAAAAAAAAAAAAAAAAAAAAAAAAAAAAAAAAAAAAAAAAAAAAAAAAAAAAAAAAAAAAAAAAAAAAAAAAAAAAAAAAAAAAAAAAAAAAAAAAAAAAAAAAAAAAAAAAAAAAAAAAAAAAAAAAAAAAAAAAAAAAAAAAAAAAAAAAAAAAAAAAAAAAAAAAAAAAAAAAAAAAAAAAAAAAAAAAAAAAAAAAAAAAAAAAAAAAAAAAAAAAAAAAAAAAAAAAAAAAAAAAAAAAAAAAAAAAAAAAAAAAAAAAAAAAAAAAAAAAAAAAAAAAAAAAAAAAAAAAAAAAAAAAAAAAAAAAAAAAAAAAAAAAAAAAAAAAAAAAAAAAAAAAAAAAAAAAAAAAAAAAAAAAAAAAAAAAAAAAAAAAAAAAAAAAAAAAAAAAAAAAAAAAAAAAAAAAAAAAAAAAAAAAAAAAAAAAAAAAAAAAAAAAAAAAAAAAAAAAAAAAAAAAAAAAAAAAAAAAAAAAAAAAAAAAAAAAAAAAAAAAAAAAAAAAAAAAAAAAAAAAAAAAAAAAAAAAAAAAAAAAAAAAAAAAAAAAAAAAAAAAAAAAAAAAAAAAAAAAAAAAAAAAAAAAAAAAAAAAAAAAAAAAAAAAAAAAAAAAAAAAAAAAAAAAAAAAAAAAAPZYQPXeh2uQDiYkoBYVQUL0i4rsI3kSToGkWOHThPdajmP7EOyqyhoOth6RBkS75jCKJhU5ytz2CCBZBrS9NoyYLb0=</c2pa:manifest></metadata><defs><clipPath id="rmclip"><rect width="640" height="480" rx="10"/></clipPath></defs><g clip-path="url(#rmclip)"><rect class="rm-bg" width="640" height="480"/><path class="rm-state" d="M567,500L566,499L564,477L558,473L554,475L554,469L554,463L550,443L548,424L546,419L544,412L545,406L546,403L551,401L556,406L556,406L561,419L565,420L570,416L573,407L574,392L576,379L572,365L567,352L567,349L574,337L576,328L578,320L580,317L584,316L589,314L595,308L600,300L604,293L604,279L603,273L605,267L605,258L603,248L596,234L588,214L586,203L589,200L594,198L605,196L606,195L606,190L608,183L610,178L611,171L611,165L604,156L596,147L590,144L580,137L573,130L574,104L576,85L576,80L575,73L564,42L563,35L564,29L562,18L560,9L562,6L565,0L561,-8L560,-8L556,-20L660,-20L660,500Z"/><path class="rm-state" d="M556,-20L560,-8L561,-8L565,0L562,6L560,9L562,18L564,29L563,35L564,42L575,73L576,80L576,85L574,104L573,130L580,137L590,144L596,147L604,156L611,165L611,171L610,178L608,183L606,190L606,195L605,196L594,198L589,200L586,203L588,214L596,234L603,248L605,258L605,267L603,273L604,279L604,293L600,300L595,308L589,314L584,316L580,317L578,320L576,328L574,337L567,349L567,352L572,365L576,379L574,392L573,407L570,416L565,420L561,419L556,406L556,403L555,399L542,396L540,397L535,395L532,394L526,393L521,382L515,373L514,369L513,351L511,344L510,335L508,342L510,353L506,358L502,360L503,367L505,368L506,375L505,385L496,407L494,410L493,413L488,411L482,418L476,419L474,412L464,403L460,404L464,408L468,414L466,418L464,421L461,422L449,431L453,436L450,442L445,443L443,446L442,449L430,461L409,489L398,497L395,500L310,500L310,500L311,498L311,497L310,494L307,494L301,495L295,494L277,483L273,477L259,467L253,457L249,447L250,437L252,421L255,417L267,423L280,432L282,432L286,425L294,419L292,417L280,424L276,420L269,413L269,409L272,405L273,400L272,395L273,388L278,381L286,374L291,368L297,363L296,362L290,365L284,369L276,377L267,383L261,385L258,387L253,389L247,398L242,401L232,402L230,395L233,372L237,361L240,353L245,352L249,346L252,346L254,349L264,352L269,344L275,343L287,336L287,334L279,336L274,336L267,338L264,337L262,331L265,326L276,314L280,309L282,304L281,300L283,293L294,281L302,276L305,281L303,295L303,302L309,280L312,275L316,271L324,268L326,265L317,266L294,274L284,282L281,288L274,296L271,302L270,310L266,314L261,316L253,326L250,335L243,341L238,346L237,348L234,353L232,353L230,350L230,344L231,333L234,326L236,319L234,312L236,308L239,308L244,310L250,310L260,304L259,301L255,301L247,301L240,296L235,285L233,271L235,267L254,253L259,247L256,246L249,254L239,258L233,252L229,244L228,229L229,221L228,210L233,207L237,209L242,210L253,209L276,203L291,207L297,207L307,201L315,201L321,205L325,210L325,216L328,220L330,219L328,214L328,206L352,197L355,193L346,192L343,184L348,172L347,171L342,177L339,186L340,193L339,197L334,198L323,199L316,196L309,194L307,192L308,187L306,186L304,190L301,199L296,202L281,198L260,200L250,204L244,204L233,195L229,189L228,176L229,170L237,168L241,168L245,165L242,163L237,159L234,151L229,149L226,142L225,132L226,125L229,122L235,124L252,123L268,131L278,135L300,133L312,127L310,125L296,129L284,128L262,121L253,118L243,119L238,117L235,110L237,96L242,93L244,97L247,97L251,92L254,88L256,81L265,74L269,74L274,71L277,72L279,75L282,78L288,77L305,72L307,70L310,66L299,68L290,71L284,72L284,68L286,64L289,60L291,54L295,51L299,51L307,50L313,48L323,49L338,52L348,58L352,57L355,55L357,53L349,51L349,47L350,45L362,39L376,38L373,34L344,41L336,37L330,37L326,39L315,42L312,40L315,33L321,21L322,18L325,16L343,9L351,1L355,0L358,0L364,-1L375,1L380,11L385,14L400,26L399,22L386,6L381,2L378,-6L379,-14L382,-19L388,-20L556,-20ZM226,206L221,207L218,206L220,196L221,195L224,194L227,199ZM230,285L230,297L226,296L224,291L223,288L224,281L223,274L224,271L226,270L229,277Z"/></g><path class="rm-route rm-track" d="M261,430L260,430L259,428L260,427L260,426L261,425L260,424L261,423L262,422L261,420L261,419L264,416L269,413L271,414L272,415L271,415L271,414L271,413L274,412L278,412L279,411L288,406L288,405L286,405L286,404L284,404L284,403L284,402L283,402L282,402L283,401L282,401L283,401L282,400L281,399L281,398L283,396L284,396L284,393L284,393L285,392L288,391L293,387L291,387L290,386L289,385L288,384L287,383L286,382L285,381L285,380L285,379L286,377L284,378L282,377L282,375L283,375L284,374L285,373L285,371L286,371L286,370L286,369L286,370L286,368L286,367L288,366L289,365L288,364L289,364L289,362L291,360L291,359L290,359L290,358L290,357L290,356L290,355L291,354L291,354L293,354L294,353L295,353L297,351L299,353L301,353L301,352L301,350L302,348L303,348L304,347L304,345L306,345L306,345L307,345L308,345L309,344L311,343L314,341L315,340L315,338L315,336L314,336L313,336L314,336L313,334L313,335L312,332L311,331L309,329L308,327L306,325L305,324L305,324L306,324L306,323L305,322L306,323L305,319L305,317L304,316L304,315L304,314L304,312L304,311L304,310L304,307L304,306L304,304L305,303L305,302L306,299L306,297L306,296L306,295L307,293L307,292L307,291L307,290L307,289L308,288L309,285L309,284L309,283L309,282L310,279L311,278L312,279L312,278L309,274L305,273L305,272L304,273L302,275L301,278L297,280L296,280L296,282L295,283L294,283L293,284L292,285L291,286L288,287L288,288L289,289"/><path class="rm-route rm-track" d="M289,289L284,286L285,285L287,284L287,282L287,282L285,281L284,279L279,280L278,280L278,279L277,279L277,279L276,279L276,278L275,277L274,277L273,277L272,276L271,278L269,278L268,277L268,278L267,278L265,278L264,276L263,276L263,276L262,276L261,277L261,276L259,277L257,273L255,273L252,274L252,274L249,274L250,276L250,277L249,279L249,281L248,281L246,282L245,284L244,282L245,281L245,280L244,278L243,277L242,276"/><path class="rm-route rm-track" d="M242,276L242,274L241,273L243,272L242,270L243,268L245,268L245,267L243,265L241,265L240,264L239,263L239,262L243,260L245,259L245,258L245,257L245,257L247,256L247,255L247,255L250,255L250,254L252,251L251,249L253,247L254,245L256,245L257,246L258,243L258,243L258,241L259,241L260,240L261,239L262,238L264,238L265,235L265,234L266,233L268,233L269,237L269,236L270,238L271,237L271,235L272,237L273,238L274,237L274,238L276,237L278,238L279,237L279,238L281,239L281,238L282,237L283,237L283,237L284,236L285,236L284,238L284,239L283,240L284,241L282,245L282,247L282,248L281,249L281,250L281,250L281,251L282,251L284,251L285,252L286,252L287,253L288,252L289,253L292,253L294,255L298,252L298,251L298,250L299,249L301,245L301,244L301,242L301,241L301,240L301,239L300,238L302,237L301,235L300,234L299,233L299,232L301,230L301,229L302,228L301,225L300,225L300,225L299,225L299,224L299,224L299,223L298,222L298,221L301,218L302,218L302,217L303,217L303,216L303,214L303,213L303,212L304,211L304,210L305,209L303,210L303,209L304,208L305,208L305,206L306,206L306,205L306,203L308,200L308,198L308,197L304,193L302,193L300,192L301,194L303,194"/><path class="rm-route rm-track" d="M303,194L301,194L300,192L302,193L304,193L304,192L304,191L303,189L301,187L302,187L303,188L303,187L304,185L305,184L305,183L304,181L304,180L304,179L304,179L302,180L302,179L302,180L302,180L300,180L298,182L295,181L294,181L293,180L289,183L289,183L288,183L287,182L286,182L285,182L284,181L284,181L282,181L283,180L284,179L288,179L289,178L288,174L288,173L287,174L287,173L286,173L284,172L281,171L280,170L277,170L278,168L280,167L281,165L283,165L285,163L288,161L292,162L294,160L294,159L295,158L299,158L300,157L303,153L302,148L302,146L302,145L303,143L303,142L302,141L302,140L301,140L300,140L301,138L301,138L301,137L301,136L301,135L303,135L302,134L303,134L302,134L303,134L302,133L307,129L307,128L305,128L306,127L308,127L311,127L314,128L315,129L316,129L316,130L316,131L316,130L316,128L317,127L318,127L318,126L317,126L315,127L314,126L312,126L312,124L312,124L311,124L311,125L310,125L307,125L307,124L306,123L304,122L303,120L300,118L300,118L300,118L302,116L302,114L301,113L298,110L297,107L294,107L293,106L293,105L292,104L288,104L286,103L284,102L283,101L282,98L281,98L280,97L280,96L284,94L284,93L279,91L278,89L276,88L277,86L281,83L282,83L283,82L286,79L287,79L289,77L291,77L294,75L294,71L293,70L294,70L295,68L295,67L295,66L295,65L291,65L285,65"/><path class="rm-route rm-track" d="M285,65L291,65L295,65L299,64L301,63L303,64L306,63L309,64L310,63L312,63L312,63L311,64L312,64L316,64L318,64L319,64L319,63L320,62L320,60L323,59L324,57L324,56L330,55L330,54L330,51L331,51L332,50L334,50L336,51L337,50L340,52L342,55L344,56L346,57L346,58L346,59L349,59L349,59L350,62L351,62L352,61L353,59L356,57L357,57L357,56L357,55L357,56L357,56L358,57L358,58L358,59L358,59L357,60L356,62L356,64L357,66L356,66L356,67L356,70L354,71L352,74L351,75L351,77L350,79L348,79L344,77L343,79L341,80L339,81L339,82L338,82L337,82L337,83L336,84L335,84L334,85L332,90L332,90L332,91L332,93L333,94L334,97L334,99L334,100L333,100L334,101L335,103L336,104L336,103L336,105L338,106L338,107L338,107L338,107L338,108L337,108L337,109L338,110L339,109L338,109L338,108L338,109L339,109L338,110L339,110L340,110L342,111L344,112L342,113L341,113L340,114L339,114L337,116L337,117L338,118L338,119L342,118L344,117L348,114L350,115L350,115L351,115L355,114L355,113L355,112"/><path class="rm-route rm-track" d="M355,112L357,112L359,113L360,113L362,112L366,112L367,114L368,116L368,117L370,118L374,119L374,119L375,120L375,121L381,122L385,124L386,125L388,124L389,124L394,125L400,128L401,128L399,130L395,131L395,132L395,133L394,135L393,137L393,137L392,138L392,139L391,140L389,142L389,142L387,142L387,144L384,145L382,147L381,147L379,148L376,149L376,151L375,155L376,155L375,156L372,157L371,159L368,159L367,160L367,161L366,162L365,163L365,163L365,164L364,164L364,165L363,165L362,166L361,166L361,166L361,167L361,168L361,169L361,170L362,170L361,171L361,171L360,173L361,174L361,175L361,177L362,178L363,181L364,182L364,183L366,183L364,184L363,184L363,187L363,188L362,188L361,190L360,190L361,191L360,192L360,192L358,192L358,193L357,194L356,195L355,196L351,196L348,198L346,200L346,200L346,200L347,201L349,205L349,205L348,204L346,205L345,207L344,208L343,209L343,211L342,211L341,212L342,212L342,213L342,215L344,218L344,220L343,222L342,223L341,223L340,223L340,223L339,223L337,223L336,224L337,223L336,224L336,223L336,222L336,223L336,223L335,225L334,225L334,226L333,227L333,227L333,228L332,229L331,229L331,229"/><path class="rm-route rm-track" d="M331,229L331,229L331,228L331,227L329,225L329,226L319,227L318,227L317,230L316,230L314,230L313,231L311,232L311,232L310,233L311,233L311,234L310,235L306,236L304,238L303,237L302,237L300,238L301,239L301,240L301,241L301,242L301,244L301,245L299,249L298,250L298,251L298,252"/><path class="rm-route rm-track" d="M298,252L298,252L301,253L303,253L303,255L305,257L306,257L307,257L308,257L308,258L308,257L310,257L311,259L312,259L313,260L312,262L314,264L317,267L318,269L317,270L316,271L315,272L314,273L313,275L312,276L313,278L312,278L311,278L310,279L309,282L309,283L309,284L309,285L308,288L307,289L307,291L307,292L307,293L306,295L306,296L305,302L305,303L304,304L304,306L304,307L304,310L304,311L304,312L304,314L304,315L304,316L305,317L305,319L305,320L306,323L304,325L303,326L302,326L301,327L300,329L298,329L297,330L295,330L294,331L294,332L292,333L289,334L286,338L286,339L282,343L282,344L282,345L282,346L280,347L278,347L278,348L276,349L276,350L276,351L274,352L273,351L272,352L271,354L271,354L269,357L268,358L266,358L262,358L260,360L260,363L260,364L260,365L257,366L256,367L254,368L252,369L250,371L250,372L248,372L248,376L247,376L247,378L248,379L247,380L247,382L247,382L247,383L246,384L247,386L248,387L249,388L249,389L248,389L248,390L248,391L247,392L248,393L247,394L247,396L247,396L247,397L247,399L247,400L247,401L247,401L254,404L254,404L255,405L259,407L260,409L259,410L258,412L258,413L257,413L255,416L255,417L256,417L256,419L258,421L260,422L260,423L261,422L261,422"/><circle class="rm-stop" cx="260.9" cy="421.8" r="5.5"/><circle class="rm-stop" cx="288.7" cy="288.6" r="5.5"/><circle class="rm-stop" cx="242.2" cy="276.8" r="5.5"/><circle class="rm-stop" cx="302.9" cy="193.9" r="5.5"/><circle class="rm-stop" cx="285.1" cy="65.4" r="5.5"/><circle class="rm-stop" cx="357.7" cy="114.9" r="5.5"/><circle class="rm-stop" cx="331.5" cy="229.4" r="5.5"/><circle class="rm-stop" cx="297.4" cy="253" r="5.5"/><circle class="rm-mark" cx="351.1" cy="255.7" r="4.5"/><circle class="rm-mark" cx="356" cy="67.1" r="4.5"/><circle class="rm-mark" cx="373.9" cy="156.4" r="4.5"/><text class="rm-label" x="270.9" y="426.8" text-anchor="start">Stavanger</text><text class="rm-label" x="298.7" y="293.6" text-anchor="start">Jondal</text><text class="rm-label" x="232.2" y="281.8" text-anchor="end">Bergen</text><text class="rm-label" x="312.9" y="198.9" text-anchor="start">Balestrand</text><text class="rm-label" x="295.1" y="70.4" text-anchor="start">Ålesund</text><text class="rm-label" x="367.7" y="119.9" text-anchor="start">Grotli</text><text class="rm-label" x="341.5" y="234.4" text-anchor="start">Flåm</text><text class="rm-label" x="307.4" y="258" text-anchor="start">Voss</text><text class="rm-label rm-label-s" x="361.1" y="259.7" text-anchor="start">Finse</text><text class="rm-label rm-label-s" x="366" y="71.1" text-anchor="start">Trollstigen</text><text class="rm-label rm-label-s" x="383.9" y="160.4" text-anchor="start">Sognefjellet</text></svg>